<svg width="58" height="27" viewBox="0 0 58 27" fill="none" xmlns="http://www.w3.org/2000/svg">
<path d="M7.992 0.395999C10.272 0.395999 12.18 0.611999 13.716 1.044C15.276 1.452 16.44 2.136 17.208 3.096C18 4.032 18.396 5.304 18.396 6.912C18.396 7.872 18.24 8.748 17.928 9.54C17.616 10.332 17.16 10.98 16.56 11.484C15.984 11.988 15.276 12.312 14.436 12.456V12.636C15.3 12.804 16.08 13.104 16.776 13.536C17.472 13.968 18.024 14.592 18.432 15.408C18.84 16.224 19.044 17.304 19.044 18.648C19.044 20.208 18.66 21.552 17.892 22.68C17.148 23.784 16.068 24.636 14.652 25.236C13.236 25.812 11.556 26.1 9.612 26.1H0V0.395999H7.992ZM8.604 10.584C10.188 10.584 11.28 10.332 11.88 9.828C12.504 9.324 12.816 8.592 12.816 7.632C12.816 6.648 12.456 5.94 11.736 5.508C11.016 5.076 9.876 4.86 8.316 4.86H5.436V10.584H8.604ZM5.436 14.904V21.6H9C10.632 21.6 11.772 21.288 12.42 20.664C13.068 20.016 13.392 19.164 13.392 18.108C13.392 17.46 13.248 16.896 12.96 16.416C12.696 15.936 12.228 15.564 11.556 15.3C10.884 15.036 9.972 14.904 8.82 14.904H5.436Z" fill="#A07777"/>
<path d="M25.7715 26.532C24.8115 26.532 23.9835 26.196 23.2875 25.524C22.6155 24.828 22.2795 24.012 22.2795 23.076C22.2795 22.116 22.6155 21.3 23.2875 20.628C23.9835 19.932 24.8115 19.584 25.7715 19.584C26.7075 19.584 27.5115 19.932 28.1835 20.628C28.8795 21.3 29.2275 22.116 29.2275 23.076C29.2275 23.7 29.0715 24.276 28.7595 24.804C28.4475 25.332 28.0275 25.752 27.4995 26.064C26.9955 26.376 26.4195 26.532 25.7715 26.532Z" fill="#A07777"/>
<path d="M57.1132 13.212C57.1132 15.204 56.8612 17.016 56.3572 18.648C55.8772 20.256 55.1332 21.648 54.1252 22.824C53.1412 24 51.8692 24.9 50.3092 25.524C48.7732 26.148 46.9612 26.46 44.8732 26.46C42.7852 26.46 40.9612 26.148 39.4012 25.524C37.8652 24.876 36.5932 23.976 35.5852 22.824C34.6012 21.648 33.8572 20.244 33.3532 18.612C32.8732 16.98 32.6332 15.168 32.6332 13.176C32.6332 10.512 33.0652 8.196 33.9292 6.228C34.8172 4.26 36.1612 2.736 37.9612 1.656C39.7852 0.552 42.1012 0 44.9092 0C47.6932 0 49.9852 0.552 51.7852 1.656C53.5852 2.736 54.9172 4.272 55.7812 6.264C56.6692 8.232 57.1132 10.548 57.1132 13.212ZM38.3572 13.212C38.3572 15.012 38.5852 16.56 39.0412 17.856C39.4972 19.152 40.2052 20.148 41.1652 20.844C42.1252 21.54 43.3612 21.888 44.8732 21.888C46.4332 21.888 47.6812 21.54 48.6172 20.844C49.5772 20.148 50.2732 19.152 50.7052 17.856C51.1612 16.56 51.3892 15.012 51.3892 13.212C51.3892 10.5 50.8852 8.376 49.8772 6.84C48.8692 5.304 47.2132 4.536 44.9092 4.536C43.3732 4.536 42.1252 4.884 41.1652 5.58C40.2052 6.276 39.4972 7.272 39.0412 8.568C38.5852 9.864 38.3572 11.412 38.3572 13.212Z" fill="#A07777"/>
</svg>
